<?xml version="1.0"?>
<svg xmlns="http://www.w3.org/2000/svg" xmlns:xlink="http://www.w3.org/1999/xlink" xmlns:svgjs="http://svgjs.com/svgjs" version="1.1" width="512" height="512" x="0" y="0" viewBox="0 0 512 512" style="enable-background:new 0 0 512 512" xml:space="preserve"><g>
  <g xmlns="http://www.w3.org/2000/svg">
    <path d="m495,466.1l-119.2-119.2c29.1-35.5 46.5-80.8 46.5-130.3 0-113.5-92.1-205.6-205.6-205.6-113.6,0-205.7,92.1-205.7,205.7s92.1,205.7 205.7,205.7c49.4,0 94.8-17.4 130.3-46.5l119.1,119.1c8,8 20.9,8 28.9,0 8-8 8-20.9 0-28.9zm-443.2-249.4c-1.42109e-14-91 73.8-164.8 164.8-164.8 91,0 164.8,73.8 164.8,164.8s-73.8,164.8-164.8,164.8c-91,0-164.8-73.8-164.8-164.8z" fill="#f9f9f9" data-original="#000000" style=""/>
  </g>
</g></svg>
